HIERARCHY
ROOT Hips
{
	OFFSET 0.00000 0.00000 0.00000
	CHANNELS 6 Xposition Yposition Zposition Zrotation Yrotation Xrotation 
	JOINT LHipJoint
	{
		OFFSET 0 0 0
		CHANNELS 3 Zrotation Yrotation Xrotation
		JOINT LeftUpLeg
		{
			OFFSET 1.30186 -1.90722 0.65024
			CHANNELS 3 Zrotation Yrotation Xrotation
			JOINT LeftLeg
			{
				OFFSET 2.56413 -7.04489 0.00000
				CHANNELS 3 Zrotation Yrotation Xrotation
				JOINT LeftFoot
				{
					OFFSET 2.79321 -7.67428 0.00000
					CHANNELS 3 Zrotation Yrotation Xrotation
					JOINT LeftToeBase
					{
						OFFSET 0.15723 -0.43198 2.08537
						CHANNELS 3 Zrotation Yrotation Xrotation
						End Site
						{
							OFFSET 0.00000 -0.00000 1.07411
						}
					}
				}
			}
		}
	}
	JOINT RHipJoint
	{
		OFFSET 0 0 0
		CHANNELS 3 Zrotation Yrotation Xrotation
		JOINT RightUpLeg
		{
			OFFSET -1.28627 -1.90723 0.65024
			CHANNELS 3 Zrotation Yrotation Xrotation
			JOINT RightLeg
			{
				OFFSET -2.56567 -7.04913 0.00000
				CHANNELS 3 Zrotation Yrotation Xrotation
				JOINT RightFoot
				{
					OFFSET -2.75597 -7.57198 0.00000
					CHANNELS 3 Zrotation Yrotation Xrotation
					JOINT RightToeBase
					{
						OFFSET -0.17500 -0.48081 2.22901
						CHANNELS 3 Zrotation Yrotation Xrotation
						End Site
						{
							OFFSET -0.00000 -0.00000 1.14762
						}
					}
				}
			}
		}
	}
	JOINT LowerBack
	{
		OFFSET 0 0 0
		CHANNELS 3 Zrotation Yrotation Xrotation
		JOINT Spine
		{
			OFFSET -0.04522 2.07467 -0.16566
			CHANNELS 3 Zrotation Yrotation Xrotation
			JOINT Spine1
			{
				OFFSET -0.01178 2.08825 -0.05393
				CHANNELS 3 Zrotation Yrotation Xrotation
				JOINT Neck
				{
					OFFSET 0 0 0
					CHANNELS 3 Zrotation Yrotation Xrotation
					JOINT Neck1
					{
						OFFSET -0.05182 1.80489 0.16014
						CHANNELS 3 Zrotation Yrotation Xrotation
						JOINT Head
						{
							OFFSET 0.14739 1.78840 -0.33342
							CHANNELS 3 Zrotation Yrotation Xrotation
							End Site
							{
								OFFSET 0.04364 1.83899 -0.13460
							}
						}
					}
				}
				JOINT LeftShoulder
				{
					OFFSET 0 0 0
					CHANNELS 3 Zrotation Yrotation Xrotation
					JOINT LeftArm
					{
						OFFSET 3.01264 1.29090 -0.06579
						CHANNELS 3 Zrotation Yrotation Xrotation
						JOINT LeftForeArm
						{
							OFFSET 5.55680 -0.00000 0.00000
							CHANNELS 3 Zrotation Yrotation Xrotation
							JOINT LeftHand
							{
								OFFSET 3.63979 -0.00000 -0.00000
								CHANNELS 3 Zrotation Yrotation Xrotation
								JOINT LeftFingerBase
								{
									OFFSET 0 0 0
									CHANNELS 3 Zrotation Yrotation Xrotation
									JOINT LeftHandIndex1
									{
										OFFSET 0.56942 -0.00000 -0.00000
										CHANNELS 3 Zrotation Yrotation Xrotation
										End Site
										{
											OFFSET 0.45908 -0.00000 -0.00000
										}
									}
								}
								JOINT LThumb
								{
									OFFSET 0 0 0
									CHANNELS 3 Zrotation Yrotation Xrotation
									End Site
									{
										OFFSET 0.46609 -0.00000 0.46609
									}
								}
							}
						}
					}
				}
				JOINT RightShoulder
				{
					OFFSET 0 0 0
					CHANNELS 3 Zrotation Yrotation Xrotation
					JOINT RightArm
					{
						OFFSET -3.15796 1.37283 -0.36748
						CHANNELS 3 Zrotation Yrotation Xrotation
						JOINT RightForeArm
						{
							OFFSET -5.34339 -0.00000 0.00000
							CHANNELS 3 Zrotation Yrotation Xrotation
							JOINT RightHand
							{
								OFFSET -3.65101 -0.00000 -0.00000
								CHANNELS 3 Zrotation Yrotation Xrotation
								JOINT RightFingerBase
								{
									OFFSET 0 0 0
									CHANNELS 3 Zrotation Yrotation Xrotation
									JOINT RightHandIndex1
									{
										OFFSET -0.69425 -0.00000 -0.00000
										CHANNELS 3 Zrotation Yrotation Xrotation
										End Site
										{
											OFFSET -0.55972 -0.00000 -0.00000
										}
									}
								}
								JOINT RThumb
								{
									OFFSET 0 0 0
									CHANNELS 3 Zrotation Yrotation Xrotation
									End Site
									{
										OFFSET -0.56827 -0.00000 0.56827
									}
								}
							}
						}
					}
				}
			}
		}
	}
}
MOTION
Frames: 17
Frame Time: 0.1
0.00 0.00 0.00 0 0 0 0 0 0 -21 0 0 0 0 0 0 0 0 0 0 0 0 0 0 21 0 0 0 0 0 0 0 0 0 0 0 0 0 0 0 0 0 0 0 0 0 0 -16 0 0 21 0 0 11 0 0 0 -8 0 0 0 0 0 0 0 0 0 0 0 0 0 0 0 0 0 0 0 0 8 0 0 0 0 0 0 0 0 0 0 0 0 0 0 0 0 0
0.00 0.00 0.00 4.7154 -31.6156 -0.0004 0.0000 0.0000 0.0000 -19.9443 -10.1784 -30.2533 4.9591 13.3376 40.6459 0.3727 -2.4029 -10.9520 0.2325 -3.1031 -8.5660 0.0000 0.0000 0.0000 16.2048 4.3249 -4.8056 -9.3352 -17.0187 57.2424 -0.3901 3.9065 13.8883 -0.0055 -0.4801 1.3191 -2.0590 1.3890 10.7655 0.8971 1.6052 4.1750 1.8943 0.7592 -1.7665 3.8963 6.1288 -10.1988 -12.3730 9.8053 15.3630 -3.7110 3.9197 7.2124 -0.0000 0.0000 0.0000 -85.6497 1.3935 24.3465 14.4932 -23.4353 -3.0215 -0.0000 -0.0000 2.6849 24.1487 17.2782 7.5850 -7.1250 0.0000 -0.0000 -3.6997 48.7678 -0.3443 -0.0000 0.0000 0.0000 80.3003 -0.9835 15.0646 -22.3676 33.3900 -6.7870 0.0000 0.0000 0.4264 -14.9056 35.2648 -8.7370 7.1250 -0.0000 -0.0000 9.8562 5.7401 10.9487
0.00 0.00 0.00 6.1684 -32.6328 -1.9363 0.0000 0.0000 0.0000 -23.4326 -6.2458 -23.8362 5.1272 13.5256 41.3692 0.8221 -4.7758 -16.1901 0.4985 -4.5263 -12.5623 0.0000 0.0000 0.0000 13.5233 6.9461 -14.8935 -13.3663 -18.9104 70.2593 0.0020 0.8121 0.1025 -0.0163 -0.8242 2.2652 -2.0719 1.3978 9.8675 -0.0631 1.6157 4.2436 0.9265 0.7653 -1.1783 3.7243 6.5290 -9.8181 -12.8764 10.6344 16.7001 -3.7768 4.2123 7.6758 -0.0000 0.0000 0.0000 -85.3372 1.0532 20.1071 13.9287 -22.6327 -2.8006 -0.0000 -0.0000 0.0712 26.1160 20.8204 9.8846 -7.1250 0.0000 -0.0000 -2.5705 52.9149 -0.5008 -0.0000 0.0000 0.0000 81.7335 -2.4803 11.3926 -22.2145 33.2186 -6.7030 0.0000 0.0000 1.4491 -22.3043 29.1880 -11.3129 7.1250 -0.0000 -0.0000 4.9215 1.0413 5.0286
0.00 0.00 0.00 7.9409 -30.3578 -2.9925 0.0000 0.0000 0.0000 -27.0951 -4.7720 -14.6783 4.2013 12.4236 37.2475 1.0954 -5.9810 -18.6953 0.2751 -3.3738 -9.3213 0.0000 0.0000 0.0000 11.8104 7.1573 -24.0465 -11.8466 -18.3250 65.5017 -0.3839 -5.4687 -14.9933 -0.0454 -1.3749 3.7809 -3.8085 0.6872 8.5790 -0.1168 0.5803 4.0538 1.9669 0.2287 -0.6448 3.8405 6.6660 -9.3532 -12.9930 10.9466 17.6800 -3.8218 4.3298 7.9555 -0.0000 0.0000 0.0000 -88.8201 1.7046 12.5369 15.2228 -24.4556 -3.3177 -0.0000 0.0000 -0.0728 31.4219 21.9694 12.8741 -7.1250 0.0000 -0.0000 2.8139 55.2593 0.7092 -0.0000 0.0000 0.0000 81.4266 -5.7473 8.0115 -20.5007 31.2409 -5.7888 0.0000 0.0000 1.8721 -16.0493 33.9020 -9.1159 7.1250 -0.0000 -0.0000 9.0684 4.5960 9.8864
0.00 0.00 0.00 9.2584 -27.5675 -2.2208 0.0000 0.0000 0.0000 -28.7981 -2.1172 -9.3223 3.2343 11.0650 32.4993 0.7757 -6.4868 -15.7158 0.5491 -4.7470 -13.1883 0.0000 0.0000 0.0000 10.7639 9.2631 -28.1962 -7.3420 -15.6132 50.1561 -0.4378 -8.0286 -17.9279 -0.0099 -0.6431 1.7672 -5.1763 0.2207 7.5290 -0.2689 -0.0914 3.2980 2.6368 -0.0983 -0.7978 3.9331 6.6937 -10.4987 -12.5779 11.0645 19.0261 -3.6623 4.3235 8.6072 0.0000 0.0000 0.0000 -90.0694 1.3077 12.1705 15.9975 -25.5173 -3.6449 -0.0000 -0.0000 1.0013 27.5253 22.4401 11.2506 -7.1250 0.0000 -0.0000 -1.5202 54.9449 -0.3713 0.0000 0.0000 0.0000 81.6172 -8.9306 6.1149 -19.2003 29.6668 -5.1296 0.0000 0.0000 4.0595 -12.8067 33.8956 -7.2249 7.1250 -0.0000 -0.0000 10.8528 4.0397 11.7978
0.00 0.00 0.00 8.3004 -25.9818 -0.5978 0.0000 0.0000 0.0000 -27.7811 0.0911 -4.3373 2.4269 9.7037 28.0224 0.4871 -5.8108 -12.4779 0.6418 -5.1252 -14.2661 0.0000 0.0000 0.0000 10.7907 14.3151 -26.5998 -3.3674 -11.2674 33.1870 -0.3252 -6.9449 -15.5036 -0.0238 -0.9952 2.7355 -3.5035 -0.0548 5.5740 -0.1644 -0.2577 3.0048 1.8103 -0.1738 -0.0160 5.3688 6.9527 -10.5515 -13.9235 11.4254 18.6766 -4.3091 4.4874 8.7060 -0.0000 0.0000 0.0000 -89.9700 0.3389 15.5029 16.0813 -25.6307 -3.6810 -0.0000 0.0000 -0.0392 23.9226 19.8142 8.5515 -7.1250 0.0000 -0.0000 -4.5351 51.4370 -0.7203 -0.0000 0.0000 0.0000 82.2315 -10.8663 3.2910 -18.3108 28.5533 -4.6969 0.0000 0.0000 5.3525 -10.5864 34.5515 -6.0507 7.1250 -0.0000 -0.0000 12.1271 4.3425 13.3025
0.00 0.00 0.00 8.1920 -21.5425 -2.2053 0.0000 0.0000 0.0000 -23.3022 3.6563 -4.9356 5.3995 13.8200 42.5212 -0.1294 -6.3687 2.5349 0.4390 -4.2514 -11.7849 0.0000 0.0000 0.0000 13.1497 17.8212 -22.9739 -3.3860 -11.2951 33.2819 0.1166 -8.2039 -8.9041 -1.2944 -7.2083 20.3340 -3.8679 0.2772 6.8208 0.7564 0.1202 2.6871 2.9442 0.0325 -1.0579 4.7806 6.3213 -10.8843 -14.8833 10.9610 19.2255 -4.6058 4.1070 8.9375 0.0000 0.0000 0.0000 -91.7312 0.3961 23.3924 19.2289 -29.7021 -5.1438 -0.0000 0.0000 -5.1773 25.0285 20.5400 9.3037 -7.1250 0.0000 -0.0000 -3.6120 52.4099 -0.6595 0.0000 0.0000 0.0000 80.4683 -12.7695 -0.6477 -16.0241 25.5533 -3.6563 0.0000 0.0000 7.1164 -9.8849 33.8351 -5.5419 7.1250 -0.0000 -0.0000 12.4514 3.5431 13.5121
0.00 0.00 0.00 4.2501 -19.9824 -3.3336 0.0000 0.0000 0.0000 -16.3058 0.6639 -11.7696 10.1645 17.5013 60.0366 0.1756 -2.1920 9.0383 0.4141 -4.1307 -11.4447 0.0000 0.0000 0.0000 20.2578 15.5726 -19.5101 -4.8660 -13.2313 40.2406 -0.3832 -6.7633 -16.0988 -1.1404 -6.7817 19.0701 -0.8288 0.1819 8.6356 1.8372 0.1893 3.3924 2.3446 0.0705 -1.3381 5.2329 6.3310 -10.4573 -14.9792 10.8735 18.8777 -4.7299 4.1300 8.7573 0.0000 0.0000 0.0000 -90.1866 0.4297 31.7652 20.4396 -31.1684 -5.7572 -0.0000 0.0000 -5.4453 29.0858 19.2552 10.3950 -7.1250 0.0000 -0.0000 0.8306 51.7658 0.1384 0.0000 0.0000 0.0000 78.6350 -7.9439 -3.0148 -12.6784 20.8141 -2.3378 0.0000 0.0000 16.0889 -10.6911 33.4728 -5.9445 7.1250 -0.0000 -0.0000 11.9796 3.3042 12.9295
0.00 0.00 0.00 1.8325 -19.3836 -2.9456 0.0000 0.0000 0.0000 -13.1353 -7.0286 -22.5496 11.4892 18.1663 64.3603 0.1014 -4.6186 -6.0895 0.3949 -4.0349 -11.1748 0.0000 0.0000 0.0000 27.0158 12.0274 -14.0101 -5.1030 -13.4988 41.2656 -0.9235 -6.6559 -21.7379 -1.0346 -6.4696 18.1531 -0.7879 0.7359 8.8116 1.9489 0.9262 3.6426 2.3655 0.4346 -1.2119 4.8615 5.7974 -11.0166 -12.3241 9.6953 19.6116 -3.8935 3.7469 8.7983 -0.0000 0.0000 0.0000 -86.7240 -2.3343 39.0858 19.5617 -30.1106 -5.3097 -0.0000 0.0000 -0.1788 28.5159 16.3624 8.7021 -7.1250 0.0000 -0.0000 0.7182 48.4549 0.0612 -0.0000 0.0000 0.0000 79.2077 -2.7658 2.8640 -14.8193 23.8938 -3.1524 0.0000 0.0000 14.7079 -13.5010 32.4973 -7.3503 7.1250 -0.0000 -0.0000 10.3333 2.7727 10.9981
0.00 0.00 0.00 2.7624 -22.4404 -3.8236 0.0000 0.0000 0.0000 -16.3730 -15.7708 -26.1735 2.3651 9.5884 27.6539 -0.1513 -7.1393 4.6482 0.0745 -1.7610 -4.8456 0.0000 0.0000 0.0000 30.7874 -3.5384 -12.5190 -8.6099 -16.5500 54.7309 0.0027 1.0177 0.8464 -0.0011 0.2168 -0.5956 -3.2277 3.8973 7.3433 -1.4134 4.9306 3.7309 -0.0292 2.4258 -0.3946 4.0558 6.0927 -8.9848 -10.0288 9.6220 17.9505 -3.0309 3.9990 7.6953 -0.0000 0.0000 0.0000 -79.8908 -2.7625 41.7824 21.5566 -32.4723 -6.3461 -0.0000 0.0000 -5.3019 34.5001 22.2557 14.5904 -7.1250 0.0000 -0.0000 6.2169 56.2790 1.7243 -0.0000 0.0000 0.0000 77.9784 1.1453 27.6174 -30.9368 41.6830 -12.0278 0.0000 -0.0000 -2.3255 -14.4060 33.2006 -8.0063 7.1250 -0.0000 -0.0000 9.8989 3.6154 10.6597
0.00 0.00 0.00 6.8660 -22.2034 -8.9672 0.0000 0.0000 0.0000 -19.5638 -16.0543 -24.6891 4.3356 12.5941 37.8674 -0.3801 -10.8859 3.0758 0.0095 -0.6278 -1.7251 0.0000 0.0000 0.0000 22.5225 -6.0193 -19.2173 -13.7129 -19.0246 71.3257 -0.1703 8.0656 14.4582 -0.0048 0.4481 -1.2312 -7.7085 4.2702 10.2505 -2.3901 4.8286 4.4157 1.2552 2.3307 -1.5283 4.3167 6.9079 -8.0543 -10.6772 10.7615 17.0816 -3.1908 4.5641 7.3861 0.0000 -0.0000 0.0000 -79.2402 -2.5373 42.7960 21.4423 -32.3409 -6.2849 -0.0000 0.0000 -4.3340 31.5776 16.9179 10.1412 -7.1250 0.0000 -0.0000 3.6883 49.5924 0.4181 0.0000 -0.0000 0.0000 78.0168 2.2347 28.6685 -32.5894 43.0121 -13.1412 0.0000 -0.0000 -0.5340 -14.6170 34.2818 -8.3568 7.1250 -0.0000 -0.0000 9.8996 4.7197 10.8380
0.00 0.00 0.00 -0.0706 -1.3341 -5.6506 0.0000 0.0000 0.0000 -1.9947 -15.1407 -17.7584 5.8785 14.3095 44.4920 0.6541 6.1062 -18.7070 0.0501 -1.4438 -3.9707 0.0000 0.0000 0.0000 13.5671 7.2111 -13.0004 -4.8056 -13.1615 39.9759 -1.0121 0.8916 -18.7393 -0.0008 -0.1867 0.5129 -4.1769 2.2967 10.3572 -0.8546 2.6310 4.5719 1.1636 1.2722 -1.1839 2.1276 3.1587 -11.3096 -7.2766 5.6466 21.4427 -2.1991 2.0922 8.8358 -0.0000 0.0000 0.0000 -80.2468 -2.9124 40.9583 29.0025 -40.0229 -10.7623 -0.0000 0.0000 -13.4881 36.1794 19.6857 13.8397 -7.1250 0.0000 -0.0000 8.3140 53.6938 1.7868 -0.0000 0.0000 0.0000 77.8998 -5.0893 14.8414 -22.6335 33.6856 -6.9340 0.0000 0.0000 3.1325 -15.8956 33.6430 -8.9656 7.1250 -0.0000 -0.0000 9.1226 4.3114 9.9050
0.00 0.00 0.00 -4.1227 4.1034 -3.0863 0.0000 0.0000 0.0000 -19.9459 7.1711 -22.8225 14.7800 19.3338 74.5730 0.0536 -3.4461 6.9540 0.6087 -4.9938 -13.8910 0.0000 0.0000 0.0000 21.6573 -0.6851 -24.2747 -6.0614 -14.4876 45.2277 -0.0520 10.5013 -8.1628 -0.0185 0.8793 -2.4166 -2.4670 -0.8123 8.2060 1.5074 -1.2346 4.2292 3.0423 -0.6693 -0.1363 3.3735 4.2125 -11.6729 -8.3285 6.9789 20.1225 -2.5960 2.7289 8.6108 -0.0000 0.0000 0.0000 -84.8480 -3.2978 32.2221 21.1969 -32.0575 -6.1541 -0.0000 0.0000 -1.6520 29.8200 16.5521 9.2739 -7.1250 0.0000 -0.0000 1.9764 48.8791 0.1892 -0.0000 0.0000 0.0000 77.8314 -8.3203 9.9294 -23.9928 35.1567 -7.7024 0.0000 -0.0000 -0.7122 -17.8456 34.7118 -10.3887 7.1250 -0.0000 -0.0000 8.1872 5.7385 9.0537
0.00 0.00 0.00 -2.8200 4.3593 -1.5437 0.0000 0.0000 0.0000 -29.1271 14.6206 -18.0109 11.4053 18.1278 64.0910 0.0888 -6.6296 11.4035 0.6392 -5.1150 -14.2367 0.0000 0.0000 0.0000 18.5879 3.1483 -26.5095 -6.4014 -14.8064 46.5724 2.0712 24.7470 5.5431 -0.4897 -4.4871 12.4512 -3.9741 -1.3543 7.3469 1.5938 -2.0372 3.6251 4.0271 -1.0833 -0.1671 3.3821 4.6716 -10.8822 -9.0394 7.6364 18.5660 -2.7647 3.0352 8.0192 -0.0000 0.0000 0.0000 -86.2576 -4.6327 27.8080 18.2998 -28.5393 -4.6916 -0.0000 0.0000 -0.5534 29.1005 17.5148 9.5094 -7.1250 0.0000 -0.0000 1.1301 49.8347 0.1347 -0.0000 0.0000 0.0000 78.7366 -9.7687 6.3666 -23.1864 34.2920 -7.2431 0.0000 -0.0000 -0.2867 -20.3538 34.1846 -11.7741 7.1250 -0.0000 -0.0000 6.7384 5.7199 7.4258
0.00 0.00 0.00 -9.4639 18.9517 4.7192 0.0000 0.0000 0.0000 -11.1217 0.1522 -30.1076 12.7981 18.7080 68.4971 -0.1160 -7.6018 -2.1620 1.5255 -7.7985 -22.1038 0.0000 0.0000 0.0000 24.5698 9.8048 -3.5011 -2.7839 -10.3367 30.0741 -0.9045 9.8107 -17.2956 -0.4564 4.3340 -12.0182 1.1486 -0.9556 5.8361 3.7352 -1.1468 2.4469 3.2753 -0.5765 -0.6971 2.7308 4.6566 -11.5717 -8.6556 7.2864 14.1831 -2.5404 2.9781 6.6563 0.0000 -0.0000 0.0000 -74.3579 -28.8833 32.5208 7.9916 -13.5393 -0.9502 -0.0000 -0.0000 17.3349 21.5787 15.8848 6.1782 -7.1250 0.0000 -0.0000 -5.8475 46.9102 -0.2766 0.0000 -0.0000 0.0000 75.4005 -2.3965 13.3859 -21.7166 32.6553 -6.4323 0.0000 -0.0000 -0.0055 -19.6805 35.8863 -11.8410 7.1250 -0.0000 -0.0000 7.3655 7.2831 8.3047
0.00 0.00 0.00 -8.3497 20.6322 6.0499 0.0000 0.0000 0.0000 -10.6741 -4.2076 -42.0103 8.7894 16.6703 55.3590 0.7604 -4.8348 -15.5535 0.7616 -5.5734 -15.5514 0.0000 0.0000 0.0000 23.9353 7.6540 3.8618 -1.7368 -8.2949 23.6133 -0.2451 6.9117 -9.3924 -0.6938 5.3247 -14.8371 0.7080 -0.2293 5.7838 3.1629 -0.2098 2.3497 2.8711 -0.1070 -0.8146 1.3271 4.3868 -12.7134 -7.3914 7.0405 15.0613 -1.9067 2.8339 7.0263 -0.0000 -0.0000 0.0000 -76.9866 -31.0389 40.5290 12.5769 -20.6642 -2.3018 -0.0000 -0.0000 4.9690 24.4746 19.4414 8.6152 -7.1250 0.0000 -0.0000 -3.8850 51.1365 -0.5881 -0.0000 -0.0000 0.0000 77.0370 -2.7776 12.1275 -19.5502 30.0966 -5.3039 0.0000 0.0000 5.2720 -16.9668 35.9813 -10.1624 7.1250 -0.0000 -0.0000 8.8373 6.8290 9.9380
0.00 0.00 0.00 -8.4307 20.2562 5.5419 0.0000 0.0000 0.0000 -16.0138 -1.2553 -41.4133 4.5210 12.8231 38.7100 0.9493 -1.0380 -18.0953 0.6419 -5.1255 -14.2667 0.0000 0.0000 0.0000 22.8470 5.7313 6.5036 -2.0656 -9.0015 25.8000 0.0302 4.0007 4.1734 -0.0846 1.8764 -5.1643 0.4798 0.3839 5.4035 2.4419 0.5749 2.2892 2.2057 0.2855 -0.6957 1.3378 3.9592 -11.9740 -6.2554 6.1743 14.0637 -1.6481 2.5558 6.4950 0.0000 0.0000 0.0000 -78.8674 -30.6761 49.4460 13.6410 -22.2191 -2.6908 -0.0000 -0.0000 6.1898 22.3813 15.7285 6.3694 -7.1250 0.0000 -0.0000 -5.0578 46.8556 -0.2322 0.0000 0.0000 0.0000 78.6870 -4.6406 12.8997 -17.5781 27.6136 -4.3519 0.0000 0.0000 7.9354 -14.1391 36.4119 -8.5044 7.1250 -0.0000 -0.0000 10.4062 6.7342 11.7396
